<svg width="412" height="377" viewBox="0 0 412 377" fill="none" xmlns="http://www.w3.org/2000/svg">
<path d="M385.202 81.5551L373.851 85.7494C364.638 89.1593 357.362 96.4274 353.96 105.649L349.766 116.983C346.812 124.963 335.534 124.963 332.588 116.983L328.394 105.649C324.992 96.4274 317.716 89.1593 308.503 85.7494L297.152 81.5551C296.152 81.1869 295.271 80.6826 294.527 80.0822C289.316 75.9039 290.188 66.9709 297.152 64.3855L302.995 62.2162L308.495 60.1831C317.708 56.7732 324.984 49.5051 328.386 40.292L332.58 28.9416C335.534 20.9771 346.812 20.9771 349.758 28.9416L353.952 40.292C357.354 49.5051 364.63 56.7732 373.843 60.1831L385.194 64.3775C393.158 67.3311 393.158 78.6094 385.194 81.5471L385.202 81.5551Z" fill="#E92F23"/>
<path d="M215.619 153.126C215.049 155.376 212.899 156.816 210.599 156.506C205.859 155.846 201.279 154.956 196.829 153.846C175.499 148.496 158.579 138.186 146.539 123.186C138.489 113.186 132.949 101.496 129.969 88.2557C129.799 87.4957 129.639 86.7457 129.479 85.9757C129.379 85.5057 129.289 85.0257 129.209 84.5457C129.119 84.0657 129.029 83.5657 128.949 83.0657C128.829 82.3557 128.709 81.6257 128.609 80.8857C128.459 80.0257 128.349 79.1457 128.249 78.2757C128.229 78.1557 128.209 78.0457 128.209 77.9457C128.069 76.7557 127.939 75.5657 127.839 74.3557C127.829 74.2757 127.809 74.2057 127.819 74.1257C127.709 72.9157 127.629 71.6757 127.559 70.4357L127.079 61.3557C126.969 59.1857 127.969 57.0957 129.749 55.8457C190.379 13.3357 257.019 -5.49428 310.439 1.38572C313.649 1.79572 314.849 5.81572 312.389 7.91572C261.839 51.1857 228.169 103.836 215.609 153.126H215.619Z" fill="#E92F23"/>
<path d="M300.408 306.166C299.948 306.546 299.498 306.906 299.028 307.256C198.578 387.216 75.3381 399.556 23.2281 334.666C-28.1319 270.736 8.54808 155.606 104.978 74.8759C106.708 73.4259 109.348 74.5459 109.568 76.7859C111.608 98.5159 118.988 118.316 132.188 134.726C155.958 164.306 194.518 177.846 238.958 176.206C287.118 174.466 342.188 154.936 392.838 118.766C397.178 115.656 401.498 112.436 405.758 109.086C408.098 108.156 410.808 109.706 411.128 112.286C411.138 112.306 411.148 112.336 411.138 112.366C411.138 112.586 411.148 112.816 411.138 113.046C411.138 113.076 411.138 113.106 411.128 113.156C410.858 175.246 370.558 249.806 300.408 306.166Z" fill="#E92F23"/>
</svg>
