<svg width="801" height="142" viewBox="0 0 801 142" fill="none" xmlns="http://www.w3.org/2000/svg">
<g clip-path="url(#clip0_61_622_dark)">
<path d="M144.451 30.5831L140.194 32.156C136.739 33.4347 134.011 36.1602 132.735 39.6182L131.162 43.8685C130.055 46.8612 125.825 46.8612 124.721 43.8685L123.148 39.6182C121.872 36.1602 119.144 33.4347 115.689 32.156L111.432 30.5831C111.057 30.445 110.727 30.2559 110.448 30.0308C108.494 28.4639 108.821 25.114 111.432 24.1445L113.623 23.331L115.686 22.5686C119.141 21.2899 121.869 18.5644 123.145 15.1094L124.718 10.853C125.825 7.86637 130.055 7.86637 131.159 10.853L132.732 15.1094C134.008 18.5644 136.736 21.2899 140.191 22.5686L144.448 24.1415C147.434 25.2491 147.434 29.4785 144.448 30.5801L144.451 30.5831Z" fill="#F4F4F5"/>
<path d="M80.8567 57.4221C80.6429 58.2659 79.8367 58.8059 78.9742 58.6896C77.1967 58.4421 75.4792 58.1084 73.8105 57.6921C65.8117 55.6859 59.4667 51.8196 54.9517 46.1946C51.933 42.4446 49.8555 38.0609 48.738 33.0959C48.6742 32.8109 48.6142 32.5296 48.5542 32.2409C48.5167 32.0646 48.483 31.8846 48.453 31.7046C48.4192 31.5246 48.3855 31.3371 48.3555 31.1496C48.3105 30.8834 48.2655 30.6096 48.228 30.3321C48.1717 30.0096 48.1305 29.6796 48.093 29.3534C48.0855 29.3084 48.078 29.2671 48.078 29.2296C48.0255 28.7834 47.9767 28.3371 47.9392 27.8834C47.9355 27.8534 47.928 27.8271 47.9317 27.7971C47.8905 27.3434 47.8605 26.8784 47.8342 26.4134L47.6542 23.0084C47.613 22.1946 47.988 21.4109 48.6555 20.9421C71.3917 5.0009 96.3817 -2.06036 116.414 0.519644C117.618 0.673394 118.068 2.18089 117.145 2.96839C98.1892 19.1946 85.563 38.9384 80.853 57.4221H80.8567Z" fill="#F4F4F5"/>
<path d="M112.653 114.812C112.481 114.955 112.312 115.09 112.136 115.221C74.4668 145.206 28.2518 149.833 8.71053 125.5C-10.5495 101.526 3.20553 58.352 39.3668 28.0783C40.0155 27.5345 41.0055 27.9545 41.088 28.7945C41.853 36.9433 44.6205 44.3683 49.5705 50.522C58.4843 61.6145 72.9443 66.692 89.6093 66.077C107.669 65.4245 128.321 58.1008 147.314 44.537C148.942 43.3708 150.562 42.1633 152.159 40.907C153.037 40.5583 154.053 41.1395 154.173 42.107C154.177 42.1145 154.181 42.1258 154.177 42.137C154.177 42.2195 154.181 42.3058 154.177 42.392C154.177 42.4033 154.177 42.4145 154.173 42.4333C154.072 65.717 138.959 93.677 112.653 114.812Z" fill="#F4F4F5"/>
<path d="M399.799 61.3687H400.169C401.819 58.7037 404.089 56.6487 406.969 55.1987C409.848 53.7488 413.313 53.024 417.358 53.0239C422.688 53.0239 427.224 54.164 430.964 56.439C434.704 58.719 437.553 61.9438 439.513 66.1138C441.473 70.2837 442.454 75.2085 442.454 80.7134C442.454 86.2184 441.439 91.059 439.419 95.229L439.414 95.2339C437.394 99.4038 434.419 102.644 430.499 104.954C426.579 107.259 421.768 108.414 416.068 108.414C411.408 108.414 407.444 107.553 404.164 105.838C400.884 104.123 398.263 101.729 396.303 98.6489H392.443V107.349H376.999V92.7886H384.539V32.7837H399.799V61.3687ZM250.509 34.3784C256.699 34.3784 262.154 35.399 266.874 37.439C271.594 39.484 275.469 42.3992 278.504 46.1841C281.539 49.969 283.454 54.4993 284.249 59.7642H267.978C267.303 55.9194 265.434 52.9442 262.369 50.8442C259.304 48.7443 255.349 47.6939 250.509 47.6938C245.914 47.6938 241.913 48.6586 238.513 50.5786C235.113 52.5036 232.478 55.2685 230.608 58.8784C228.738 62.4884 227.803 66.6038 227.803 71.5737C227.803 76.5436 228.753 80.8488 230.653 84.4888C232.553 88.1286 235.218 90.9434 238.653 92.9233C242.083 94.9083 246.129 95.8989 250.789 95.8989C254.219 95.8989 257.313 95.3632 260.073 94.2983C262.828 93.2334 265.003 91.7538 266.598 89.8589C268.193 87.969 268.988 85.8391 268.988 83.4692V80.7192H249.409V69.0884H272.759C276.558 69.0884 279.423 69.9786 281.353 71.7534C283.283 73.5284 284.249 76.1638 284.249 79.6538V107.349H269.909V99.0034H269.448C267.733 102.078 265.099 104.414 261.544 106.014C257.989 107.609 253.728 108.409 248.763 108.409C241.533 108.409 235.173 106.854 229.688 103.749C224.203 100.639 219.913 96.3086 216.818 90.7437C213.723 85.1837 212.178 78.9437 212.178 71.4839C212.178 64.0239 213.774 57.5186 216.959 51.9536C220.144 46.3937 224.619 42.0736 230.379 38.9937C236.139 35.9187 242.849 34.3784 250.509 34.3784ZM472.509 53.019C479.924 53.0191 485.809 54.5891 490.159 57.7241C494.509 60.8591 496.899 65.2391 497.329 70.8589H482.619C481.944 68.3741 480.749 66.5689 479.034 65.4438C477.319 64.3239 474.839 63.7583 471.589 63.7583C468.769 63.7583 466.623 64.1585 465.153 64.9585C463.683 65.7584 462.949 66.9535 462.949 68.5532C462.949 69.6782 463.409 70.624 464.329 71.394C465.249 72.1639 466.659 72.7237 468.558 73.0786L481.153 75.3892C486.913 76.5141 491.139 78.3183 493.839 80.8032H493.829C496.524 83.2882 497.874 86.6635 497.874 90.9233C497.874 96.4282 495.774 100.718 491.579 103.793C487.379 106.868 481.603 108.409 473.513 108.409C465.423 108.409 459.038 106.769 454.348 103.484C449.658 100.199 447.133 95.5982 446.763 89.6782H461.473C461.963 92.2232 463.234 94.1139 465.289 95.3589C467.339 96.6038 470.299 97.2241 474.159 97.2241C480.474 97.224 483.629 95.5385 483.629 92.1636C483.629 90.8036 483.154 89.7233 482.204 88.9233C481.254 88.1233 479.673 87.519 477.469 87.104L465.148 84.7935C454.118 82.7234 448.603 77.7234 448.603 69.7935C448.603 64.7036 450.719 60.6383 454.949 57.5884C459.179 54.5436 465.094 53.019 472.509 53.019ZM570.324 53.019C576.084 53.0191 581.034 54.0834 585.169 56.2134L585.164 56.2085C589.299 58.3435 592.473 61.3891 594.678 65.354C596.883 69.324 597.988 74.0542 597.988 79.5591V84.5288H556.164C556.779 88.4936 558.338 91.5135 560.853 93.5835C563.368 95.6535 566.679 96.689 570.784 96.689C574.029 96.6889 576.604 96.1533 578.504 95.0884C580.404 94.0234 581.754 92.3984 582.549 90.2085H597.808C596.583 95.8885 593.613 100.344 588.893 103.569C584.173 106.799 578.164 108.409 570.874 108.409C564.929 108.409 559.754 107.274 555.339 104.994C550.924 102.719 547.524 99.4888 545.134 95.3188C542.744 91.1438 541.549 86.2186 541.549 80.5386C541.549 74.8587 542.714 69.964 545.044 65.8491C547.374 61.7342 550.698 58.5691 555.018 56.3491C559.338 54.1291 564.564 53.019 570.324 53.019ZM344.278 53.019C350.283 53.019 355.478 54.1441 359.858 56.394V56.3892C364.238 58.6392 367.643 61.8341 370.063 65.9741C372.483 70.119 373.693 75.0887 373.693 80.7085C373.693 86.3285 372.498 91.2289 370.108 95.3989C367.718 99.5688 364.303 102.779 359.858 105.029C355.413 107.279 350.193 108.404 344.183 108.404C338.173 108.404 332.953 107.269 328.509 104.989C324.069 102.714 320.619 99.4838 318.169 95.314C315.719 91.144 314.494 86.2435 314.494 80.6235C314.494 75.0037 315.704 70.1239 318.124 65.979C320.544 61.8391 324.009 58.644 328.513 56.394C333.018 54.1441 338.273 53.0191 344.278 53.019ZM691.478 53.0142C699.693 53.0142 705.958 54.7886 710.278 58.3384C714.598 61.8884 716.759 67.0686 716.759 73.8735V92.7788H723.928V107.338H708.483V98.6392H704.624C702.724 101.714 700.179 104.099 696.994 105.784C693.809 107.469 689.824 108.314 685.044 108.314C678.549 108.314 673.459 106.794 669.784 103.744C666.109 100.699 664.268 96.6883 664.268 91.7183C664.268 86.4536 666.169 82.399 669.969 79.5591C673.768 76.7191 679.224 75.2983 686.334 75.2983V75.2886H702.143V73.2485C702.143 67.5086 698.588 64.6392 691.478 64.6392C685.288 64.6392 681.548 66.7141 680.263 70.854H665.094C666.319 64.994 669.168 60.5586 673.643 57.5386C678.118 54.5236 684.063 53.0142 691.478 53.0142ZM307.323 107.349H292.063V32.7837H307.323V107.349ZM524.449 54.0835H537.228V65.6235H524.634V95.8042H538.513V107.344H521.784C517.864 107.344 514.813 106.383 512.638 104.458H512.643C510.463 102.533 509.379 99.5884 509.379 95.6235V65.6235H499.909V54.0835H509.558V38.104H524.449V54.0835ZM643.863 66.2485H638.534C633.754 66.2485 630.244 67.5488 628.009 70.1538C625.769 72.7588 624.653 76.1888 624.653 80.4487V107.344H609.669V68.644H602.129V54.0835H617.574V64.5591H621.433C622.903 60.8291 625.229 58.0484 628.419 56.2134C631.604 54.3835 635.189 53.4634 639.174 53.4634H643.863V66.2485ZM746.544 107.344H731.284V54.0835H746.544V107.344ZM655.909 91.9038V107.343H640.469V91.9038H655.909ZM687.068 85.0688C681.553 85.0689 678.794 87.0492 678.794 91.0142C678.794 92.9639 679.559 94.4737 681.094 95.5386C682.624 96.6036 684.708 97.1392 687.344 97.1392C690.224 97.1392 692.768 96.6334 694.973 95.6284C697.178 94.6234 698.929 93.2734 700.214 91.5884C701.498 89.9035 702.143 87.9936 702.143 85.8638V85.0688H687.068ZM344.183 65.8032C339.523 65.8033 335.953 67.1235 333.473 69.7534C330.988 72.3884 329.749 76.0136 329.749 80.6284C329.749 85.2433 330.994 88.8984 333.473 91.5884C335.953 94.2833 339.588 95.6284 344.183 95.6284C348.778 95.6284 352.304 94.2834 354.754 91.5884C357.204 88.8984 358.428 85.2433 358.428 80.6284C358.428 76.0136 357.204 72.3884 354.754 69.7534C352.304 67.1235 348.843 65.8032 344.183 65.8032ZM413.219 65.8042C409.114 65.8042 405.848 66.9134 403.428 69.1333C401.008 71.3483 399.799 74.4138 399.799 78.3188V83.1138C399.799 87.0186 401.009 90.0784 403.428 92.2983C405.848 94.5183 409.114 95.6284 413.219 95.6284C417.874 95.6284 421.369 94.2983 423.699 91.6333V91.6392C426.029 88.9742 427.193 85.3383 427.193 80.7183C427.193 76.0985 426.029 72.4632 423.699 69.7983C421.369 67.1333 417.874 65.8042 413.219 65.8042ZM570.414 64.6489C566.679 64.6489 563.628 65.5091 561.268 67.2241C558.908 68.9391 557.329 71.4542 556.534 74.769H583.374C582.884 71.394 581.534 68.8632 579.329 67.1782C577.124 65.4933 574.149 64.649 570.414 64.6489ZM738.914 32.6987C741.244 32.6988 743.219 33.4835 744.844 35.0483C746.464 36.6183 747.278 38.5239 747.278 40.7739C747.278 43.0238 746.468 44.9336 744.844 46.4985C743.219 48.0635 741.244 48.8491 738.914 48.8491C736.584 48.8491 734.608 48.0685 732.983 46.4985C731.358 44.9336 730.549 43.0187 730.549 40.7739C730.549 38.5289 731.358 36.6183 732.983 35.0483C734.608 33.4833 736.584 32.6987 738.914 32.6987Z" fill="#F4F4F5"/>
</g>
<defs>
<clipPath id="clip0_61_622_dark">
<rect width="800.5" height="141.112" fill="white"/>
</clipPath>
</defs>
</svg>
