<svg width="644" height="644" viewBox="0 0 644 644" fill="none" xmlns="http://www.w3.org/2000/svg">
<path d="M573.999 80.2738C573.676 80.739 573.356 81.2057 573.03 81.6686C561.806 97.6196 550.4 113.447 539.414 129.56C530.55 142.559 522.898 156.279 516.899 170.879C508.19 192.072 504.957 214.123 506.268 236.929C507.116 251.695 509.519 266.221 512.812 280.614C516.933 298.619 518.945 316.83 517.916 335.297C515.357 381.252 498.467 421.21 467.046 454.83C439.776 484.008 406.479 502.845 367.32 510.862C327.381 519.039 288.796 514.182 251.61 497.678C240.61 492.796 230.172 486.889 220.205 480.146C219.928 479.959 219.662 479.757 219.258 479.466C219.648 479.243 219.938 479.047 220.251 478.902C238.587 470.392 256.928 461.893 275.254 453.361C276.085 452.974 276.748 453.094 277.525 453.392C296.402 460.625 315.917 464.238 336.155 463.41C367.335 462.134 394.837 451.283 418.502 430.997C443.535 409.54 459.205 382.538 465.031 350.044C469.79 323.503 466.872 297.678 456.739 272.689C453.214 263.997 443.449 260.621 434.938 265.09C433.9 265.635 432.917 266.308 431.972 267.007C377.152 307.526 322.339 348.054 267.525 388.58C267.062 388.923 266.592 389.259 266.126 389.598C266.039 389.503 265.951 389.409 265.864 389.314C368.477 286.21 471.09 183.105 573.702 80C573.801 80.0913 573.9 80.1825 573.999 80.2738Z" fill="black"/>
<path d="M229.758 420.988C176.539 468.59 123.374 516.142 70.2088 563.695C70.1393 563.647 70.0695 563.599 70 563.551C70.2627 563.177 70.516 562.797 70.7896 562.431C78.3485 552.326 86.7833 542.972 95.3794 533.755C105.696 522.693 116.122 511.73 126.252 500.5C135.128 490.66 143.121 480.119 149.5 468.44C154.526 459.238 158.203 449.561 159.748 439.139C161.715 425.867 160.016 412.992 155.257 400.531C151.86 391.636 148.465 382.755 146.082 373.518C140.673 352.557 138.921 331.301 140.722 309.729C145.772 249.233 179.091 195.012 230.706 163.508C253.534 149.573 278.243 140.887 304.771 137.49C337.68 133.275 369.5 137.467 400.334 149.766C413.719 155.106 426.301 161.792 438.028 170.132C438.336 170.351 438.64 170.579 438.938 170.812C439 170.86 439.029 170.949 439.13 171.11C438.713 171.312 438.311 171.516 437.901 171.706C419.745 180.101 401.59 188.5 383.418 196.862C382.847 197.124 382.002 197.23 381.442 197.01C342.857 181.891 304.805 183.716 267.764 201.686C231.767 219.15 208.528 248.002 196.174 285.783C190.503 303.125 188.487 320.985 190.166 339.173C193.086 370.787 206.181 397.59 228.731 419.846C229.001 420.113 229.272 420.377 229.538 420.647C229.595 420.705 229.629 420.785 229.758 420.988Z" fill="black"/>
</svg>
