<svg width="320" height="56" viewBox="0 0 320 56" fill="none" xmlns="http://www.w3.org/2000/svg">
<path d="M6.41626 42.2165C4.17727 42.2145 2.11576 41.0486 1.03213 39.1714C-0.051499 37.2943 0.0134463 35.0016 1.20175 33.1835L12.2892 16.2247C13.428 14.3781 15.5229 13.2689 17.7608 13.3277C19.9986 13.3864 22.027 14.6039 23.0585 16.5075C24.09 18.4111 23.9622 20.7011 22.7248 22.4884L11.6439 39.4473C10.5169 41.1728 8.54083 42.2196 6.41626 42.2165Z" fill="#FB275D"/>
<path d="M25.3076 42.2165C23.0722 42.2145 21.0141 41.0514 19.9322 39.1787C18.8504 37.306 18.9152 35.0188 20.1016 33.205L31.1676 16.2864C32.2885 14.4129 34.3908 13.2771 36.6455 13.327C38.9001 13.3769 40.9454 14.6044 41.9748 16.5255C43.0041 18.4466 42.8524 20.753 41.5795 22.5353L30.5135 39.4539C29.3908 41.1715 27.424 42.2152 25.3076 42.2165V42.2165Z" fill="#FFCC00"/>
<path d="M43.7251 42.251C47.1114 42.251 49.8565 39.5107 49.8565 36.1303C49.8565 32.7499 47.1114 30.0095 43.7251 30.0095C40.3389 30.0095 37.5938 32.7499 37.5938 36.1303C37.5938 39.5107 40.3389 42.251 43.7251 42.251Z" fill="#00CA72"/>
<g fill="currentColor">
<path d="M243.716 48.8163L248.8 37.3093L237.644 11.9062H247.023L253.39 28.3377L259.906 11.9062H268.89L252.798 48.8163H243.716Z"/>
<path d="M217.989 11.516C222.136 11.516 225.048 13.3688 226.529 15.758V11.9061H234.97V39.1133H226.529V35.2614C224.999 37.6505 222.086 39.5034 217.989 39.5034C211.227 39.5034 205.896 34.0424 205.896 25.4609C205.896 16.8794 211.227 11.516 217.989 11.516ZM214.485 25.4609C214.485 29.8004 217.298 32.2383 220.507 32.2383C223.715 32.2383 226.529 29.8492 226.529 25.5097C226.529 21.1702 223.715 18.781 220.507 18.781C217.298 18.781 214.485 21.1214 214.485 25.4609Z"/>
<path d="M185.302 11.5162C188.955 11.5162 192.065 13.174 193.743 15.6607V3.03223H202.233V39.1135H193.743V35.2128C192.262 37.6995 189.35 39.5035 185.253 39.5035C178.491 39.5035 173.16 34.0426 173.16 25.4611C173.16 16.8796 178.491 11.5162 185.302 11.5162ZM181.748 25.4611C181.748 29.8006 184.562 32.2385 187.771 32.2385C190.979 32.2385 193.793 29.8494 193.793 25.5099C193.793 21.1704 190.979 18.7812 187.771 18.7812C184.562 18.7812 181.748 21.1216 181.748 25.4611Z"/>
<path d="M161.252 24.3395C161.252 20.6339 159.129 18.586 155.97 18.586C152.712 18.586 150.639 20.6339 150.639 24.3395V39.1133H142.198V11.9061H150.639V15.563C152.317 13.2226 155.279 11.6135 158.981 11.6135C165.398 11.6135 169.643 15.9043 169.643 23.2181V39.1133H161.252V24.3395Z"/>
<path d="M124.12 39.7471C116.025 39.7471 109.954 34.3837 109.954 25.5096C109.954 16.6356 116.173 11.2722 124.268 11.2722C132.364 11.2722 138.583 16.6356 138.583 25.5096C138.583 34.3837 132.265 39.7471 124.12 39.7471ZM118.493 25.5096C118.493 30.0929 121.109 32.2871 124.12 32.2871C127.131 32.2871 129.994 30.0929 129.994 25.5096C129.994 20.8776 127.181 18.7322 124.219 18.7322C121.208 18.7322 118.493 20.8776 118.493 25.5096Z"/>
<path d="M60 11.9061H68.4408V15.3679C70.0697 13.1251 72.9327 11.6135 76.4867 11.6135C80.6824 11.6135 84.039 13.4176 85.9147 16.6844C87.7411 13.8077 91.147 11.6135 95.1946 11.6135C102.006 11.6135 106.4 15.9043 106.4 23.2181V39.1133H98.0082V24.3395C98.0082 20.7801 95.8857 18.8298 92.7265 18.8298C89.4687 18.8298 87.4449 20.7801 87.4449 24.3395V39.1133H79.0535V24.3395C79.0535 20.7801 76.9309 18.8298 73.7718 18.8298C70.514 18.8298 68.4408 20.7801 68.4408 24.3395V39.1133H60V11.9061Z"/>
<path d="M268.82 33.5448C268.82 32.4009 269.06 31.405 269.541 30.5572C270.021 29.6959 270.684 29.0297 271.532 28.5587C272.393 28.0876 273.374 27.8521 274.476 27.8521C275.902 27.8521 277.074 28.1818 277.992 28.8413C278.924 29.5007 279.538 30.4159 279.834 31.5867H277.759C277.561 30.9138 277.173 30.3822 276.594 29.9919C276.029 29.6017 275.323 29.4065 274.476 29.4065C273.374 29.4065 272.485 29.7699 271.807 30.4966C271.129 31.2099 270.79 32.226 270.79 33.5448C270.79 34.8772 271.129 35.9067 271.807 36.6334C272.485 37.3602 273.374 37.7235 274.476 37.7235C275.323 37.7235 276.029 37.5351 276.594 37.1583C277.158 36.7815 277.547 36.2432 277.759 35.5434H279.834C279.524 36.6738 278.902 37.5822 277.97 38.2686C277.038 38.9415 275.874 39.2779 274.476 39.2779C273.374 39.2779 272.393 39.0424 271.532 38.5714C270.684 38.1004 270.021 37.4342 269.541 36.5729C269.06 35.7116 268.82 34.7022 268.82 33.5448Z"/>
<path d="M309.018 27.8319C309.922 27.8319 310.726 28.0136 311.432 28.377C312.139 28.7269 312.696 29.2585 313.106 29.9717C313.515 30.685 313.72 31.5531 313.72 32.5759V39.0963H311.814V32.8383C311.814 31.7347 311.524 30.8936 310.945 30.3149C310.381 29.7228 309.611 29.4267 308.637 29.4267C307.634 29.4267 306.836 29.7362 306.243 30.3553C305.65 30.9609 305.354 31.8424 305.354 32.9998V39.0963H303.447V32.8383C303.447 31.7347 303.158 30.8936 302.579 30.3149C302.014 29.7228 301.245 29.4267 300.27 29.4267C299.268 29.4267 298.47 29.7362 297.877 30.3553C297.284 30.9609 296.987 31.8424 296.987 32.9998V39.0963H295.06V28.0338H296.987V29.6286C297.369 29.0499 297.877 28.6058 298.512 28.2962C299.162 27.9867 299.875 27.8319 300.652 27.8319C301.626 27.8319 302.487 28.0405 303.236 28.4577C303.984 28.8749 304.542 29.4873 304.909 30.2947C305.234 29.5142 305.77 28.9086 306.519 28.4779C307.267 28.0473 308.1 27.8319 309.018 27.8319Z"/>
<path d="M287.157 39.2779C286.069 39.2779 285.081 39.0424 284.191 38.5714C283.316 38.1004 282.624 37.4342 282.116 36.5729C281.621 35.6981 281.374 34.6888 281.374 33.5448C281.374 32.4144 281.629 31.4185 282.137 30.5572C282.659 29.6824 283.365 29.0162 284.255 28.5587C285.145 28.0876 286.14 27.8521 287.241 27.8521C288.343 27.8521 289.338 28.0876 290.228 28.5587C291.117 29.0162 291.816 29.6757 292.325 30.537C292.847 31.3983 293.108 32.4009 293.108 33.5448C293.108 34.6888 292.84 35.6981 292.304 36.5729C291.781 37.4342 291.068 38.1004 290.164 38.5714C289.261 39.0424 288.258 39.2779 287.157 39.2779ZM287.157 37.663C287.849 37.663 288.498 37.5082 289.105 37.1987C289.712 36.8891 290.2 36.4249 290.567 35.8058C290.948 35.1867 291.139 34.4331 291.139 33.5448C291.139 32.6566 290.955 31.903 290.588 31.2839C290.221 30.6648 289.741 30.2073 289.148 29.9112C288.555 29.6017 287.912 29.4469 287.22 29.4469C286.514 29.4469 285.865 29.6017 285.272 29.9112C284.693 30.2073 284.227 30.6648 283.874 31.2839C283.521 31.903 283.344 32.6566 283.344 33.5448C283.344 34.4465 283.514 35.2069 283.853 35.826C284.206 36.445 284.671 36.9093 285.25 37.2189C285.829 37.5149 286.465 37.663 287.157 37.663Z"/>
<path d="M264.143 39.2779C263.581 39.2779 263.115 39.0996 262.745 38.7429C262.39 38.3706 262.213 37.9131 262.213 37.3703C262.213 36.8274 262.39 36.3777 262.745 36.0209C263.115 35.6487 263.581 35.4626 264.143 35.4626C264.69 35.4626 265.141 35.6487 265.496 36.0209C265.851 36.3777 266.028 36.8274 266.028 37.3703C266.028 37.9131 265.851 38.3706 265.496 38.7429C265.141 39.0996 264.69 39.2779 264.143 39.2779Z"/>
</g>
</svg>
