<svg xmlns="http://www.w3.org/2000/svg" viewBox="0 12 51 32" fill="none">
  <path d="M6.41626 42.2165C4.17727 42.2145 2.11576 41.0486 1.03213 39.1714C-0.051499 37.2943 0.0134463 35.0016 1.20175 33.1835L12.2892 16.2247C13.428 14.3781 15.5229 13.2689 17.7608 13.3277C19.9986 13.3864 22.027 14.6039 23.0585 16.5075C24.09 18.4111 23.9622 20.7011 22.7248 22.4884L11.6439 39.4473C10.5169 41.1728 8.54083 42.2196 6.41626 42.2165Z" fill="#FB275D"/>
  <path d="M25.3076 42.2165C23.0722 42.2145 21.0141 41.0514 19.9322 39.1787C18.8504 37.306 18.9152 35.0188 20.1016 33.205L31.1676 16.2864C32.2885 14.4129 34.3908 13.2771 36.6455 13.327C38.9001 13.3769 40.9454 14.6044 41.9748 16.5255C43.0041 18.4466 42.8524 20.753 41.5795 22.5353L30.5135 39.4539C29.3908 41.1715 27.424 42.2152 25.3076 42.2165Z" fill="#FFCC00"/>
  <path d="M43.7251 42.251C47.1114 42.251 49.8565 39.5107 49.8565 36.1303C49.8565 32.7499 47.1114 30.0095 43.7251 30.0095C40.3389 30.0095 37.5938 32.7499 37.5938 36.1303C37.5938 39.5107 40.3389 42.251 43.7251 42.251Z" fill="#00CA72"/>
</svg>
