<svg width="644" height="644" viewBox="0 0 644 644" fill="none" xmlns="http://www.w3.org/2000/svg">
<g clip-path="url(#clip0_185_6002)">
<path d="M322 592C471.117 592 592 471.117 592 322C592 172.883 471.117 52 322 52C172.883 52 52 172.883 52 322C52 471.117 172.883 592 322 592Z" fill="url(#paint0_linear_185_6002)"/>
<path fill-rule="evenodd" clip-rule="evenodd" d="M174.216 319.15C252.926 284.857 305.412 262.249 331.674 251.326C406.656 220.138 422.236 214.721 432.392 214.542C434.625 214.503 439.619 215.056 442.854 217.681C445.586 219.897 446.337 222.892 446.697 224.993C447.056 227.094 447.504 231.882 447.148 235.622C443.085 278.315 425.503 381.921 416.559 429.738C412.774 449.972 405.321 456.756 398.107 457.42C382.427 458.862 370.521 447.058 355.335 437.103C331.571 421.526 318.146 411.829 295.08 396.628C268.422 379.061 285.703 369.406 300.895 353.627C304.871 349.498 373.955 286.661 375.292 280.96C375.459 280.247 375.614 277.59 374.036 276.187C372.457 274.783 370.127 275.263 368.445 275.645C366.062 276.186 328.099 301.278 254.558 350.92C243.782 358.32 234.022 361.925 225.277 361.736C215.637 361.528 197.093 356.285 183.307 351.804C166.398 346.308 152.959 343.402 154.13 334.067C154.739 329.205 161.435 324.233 174.216 319.15Z" fill="white"/>
</g>
<defs>
<linearGradient id="paint0_linear_185_6002" x1="322" y1="52" x2="322" y2="587.995" gradientUnits="userSpaceOnUse">
<stop stop-color="#2AABEE"/>
<stop offset="1" stop-color="#229ED9"/>
</linearGradient>
<clipPath id="clip0_185_6002">
<rect width="540" height="540" fill="white" transform="translate(52 52)"/>
</clipPath>
</defs>
</svg>
